<?xml version="1.0" standalone="no"?>
<!DOCTYPE svg PUBLIC "-//W3C//DTD SVG 20010904//EN"
 "http://www.w3.org/TR/2001/REC-SVG-20010904/DTD/svg10.dtd">
<svg version="1.0" xmlns="http://www.w3.org/2000/svg"
 width="32.000000pt" height="32.000000pt" viewBox="0 0 32.000000 32.000000"
 preserveAspectRatio="xMidYMid meet">

<g transform="translate(0.000000,32.000000) scale(0.100000,-0.100000)"
fill="#000000" stroke="none">
<path d="M95 306 c-94 -41 -124 -168 -58 -247 43 -51 133 -76 173 -48 11 7 4
8 -26 4 -63 -10 -140 28 -104 50 5 3 10 18 10 33 0 27 -33 52 -69 52 -10 1 -7
6 9 15 14 8 21 14 17 15 -5 0 1 14 13 30 13 19 20 39 17 51 -4 16 2 24 28 35
41 17 45 17 45 4 0 -5 -6 -10 -14 -10 -27 0 -47 -31 -41 -60 3 -16 2 -31 -4
-35 -22 -13 -11 -47 19 -58 18 -7 30 -19 30 -30 0 -27 19 -57 35 -57 8 0 26
23 39 50 l24 50 -26 30 c-15 17 -35 30 -45 30 -10 0 -21 8 -24 19 -3 13 -11
17 -24 14 -34 -9 -11 21 32 40 50 24 78 17 118 -28 37 -42 43 -73 11 -53 -17
11 -22 10 -30 -2 -8 -13 -14 -10 -35 15 -37 45 -31 21 11 -43 1 -2 12 2 25 8
18 10 23 9 31 -4 5 -9 14 -13 20 -10 8 5 9 1 5 -10 -4 -10 -7 -26 -7 -36 0
-10 -12 -33 -26 -50 -15 -17 -24 -33 -21 -36 10 -10 56 58 63 91 24 130 -102
233 -221 181z m-25 -52 c0 -3 -11 -22 -25 -42 -20 -29 -25 -32 -25 -17 0 23
26 65 41 65 5 0 9 -2 9 -6z m75 -55 c4 -6 13 -8 21 -5 18 7 54 -45 44 -64 -4
-8 -13 -28 -19 -43 -14 -36 -27 -28 -35 23 -5 34 -10 40 -31 40 -31 0 -39 14
-23 40 14 22 33 26 43 9z m-82 -75 c21 -8 22 -37 3 -53 -11 -10 -17 -7 -30 11
-19 27 -21 62 -3 54 6 -3 20 -9 30 -12z"/>
<path d="M232 108 c-15 -15 -16 -45 -2 -53 13 -8 34 45 22 57 -4 4 -13 3 -20
-4z"/>
</g>
</svg>
