<?xml version="1.0" encoding="UTF-8"?>
<svg version="1.1" xmlns="http://www.w3.org/2000/svg" width="32" height="32">
<path d="M0 0 C4.8846525 2.26787438 7.73212562 5.1153475 10 10 C10.75381535 15.5997712 10.77303575 20.33499991 8.375 25.5 C3.80134327 30.3143755 0.6912538 32.25156236 -6 32.5 C-12.6912538 32.25156236 -15.80134327 30.3143755 -20.375 25.5 C-22.77303575 20.33499991 -22.75381535 15.5997712 -22 10 C-17.52212837 0.3553534 -9.85292056 -1.32635469 0 0 Z M-13 3 C-13.33 3.66 -13.66 4.32 -14 5 C-13.01 4.67 -12.02 4.34 -11 4 C-11.66 3.67 -12.32 3.34 -13 3 Z M-17 13 C-16 17 -16 17 -16 17 Z M-20 18 C-19 20 -19 20 -19 20 Z M-19 21 C-18 23 -18 23 -18 23 Z M-14 25 C-13.67 26.32 -13.34 27.64 -13 29 C-12.01 28.67 -11.02 28.34 -10 28 C-11.32 27.01 -12.64 26.02 -14 25 Z " fill="#6FC1E7" transform="translate(22,0)"/>
<path d="M0 0 C4.8846525 2.26787438 7.73212562 5.1153475 10 10 C10.72273033 15.36885391 11.16427695 20.94074756 8.1875 25.6875 C6 28 6 28 3 29 C4.17139913 26.65720173 5.35242565 24.32334276 6.5625 22 C7.71427776 19.59628989 8.50121687 17.59367225 9 15 C8.01 15 7.02 15 6 15 C6 14.34 6 13.68 6 13 C5.01 13 4.02 13 3 13 C3 12.34 3 11.68 3 11 C4.32 11.33 5.64 11.66 7 12 C5.64908907 7.57883696 3.86882275 5.51923342 0 3 C-3.37066702 1.93125192 -5.64946006 1.88315335 -9 3 C-9 3.66 -9 4.32 -9 5 C-9.78375 5.61875 -10.5675 6.2375 -11.375 6.875 C-13.94208751 8.95311846 -15.00312687 9.91875579 -16 13 C-16.16724737 16.16695956 -16.16724737 16.16695956 -16 19 C-15.01 19 -14.02 19 -13 19 C-13 21.97 -13 24.94 -13 28 C-8.07262981 29.97094808 -4.21979128 30.1799928 1 30 C0.67 30.66 0.34 31.32 0 32 C-10.66224287 32.62110153 -10.66224287 32.62110153 -15.5 30.375 C-20.3143755 25.80134327 -22.25156236 22.6912538 -22.5 16 C-22.25156236 9.3087462 -20.3143755 6.19865673 -15.5 1.625 C-10.33499991 -0.77303575 -5.5997712 -0.75381535 0 0 Z M-13 3 C-13.33 3.66 -13.66 4.32 -14 5 C-13.01 4.67 -12.02 4.34 -11 4 C-11.66 3.67 -12.32 3.34 -13 3 Z M-20 18 C-19 20 -19 20 -19 20 Z M-19 21 C-18 23 -18 23 -18 23 Z " fill="#0B0F08" transform="translate(22,0)"/>
<path d="M0 0 C0.33 0.66 0.66 1.32 1 2 C1.99 2.33 2.98 2.66 4 3 C8.04021145 4.80520086 11.23315751 6.48823837 14 10 C14 11.32 14 12.64 14 14 C14.33 14 14.66 14 15 14 C15 15.98 15 17.96 15 20 C14.01 20 13.02 20 12 20 C11.67 19.34 11.34 18.68 11 18 C10.34 18.99 9.68 19.98 9 21 C7.0625 20.625 7.0625 20.625 5 20 C3.64560332 17.29120665 3.93498549 14.99066732 4 12 C2.35 12 0.7 12 -1 12 C-2.36884358 7.48281619 -1.47075246 4.41225737 0 0 Z " fill="#253333" transform="translate(10,6)"/>
<path d="M0 0 C3.00950312 2.39406281 4.88627955 3.9296427 6.09765625 7.64453125 C6.11828125 8.34578125 6.13890625 9.04703125 6.16015625 9.76953125 C4.51015625 9.10953125 2.86015625 8.44953125 1.16015625 7.76953125 C1.16015625 8.42953125 1.16015625 9.08953125 1.16015625 9.76953125 C-1.83984375 8.76953125 -1.83984375 8.76953125 -3.83984375 5.76953125 C-6.03439056 5.18959426 -6.03439056 5.18959426 -8.46484375 5.08203125 C-9.28210938 5.01628906 -10.099375 4.95054688 -10.94140625 4.8828125 C-11.56789063 4.84542969 -12.194375 4.80804687 -12.83984375 4.76953125 C-12.83984375 3.77953125 -12.83984375 2.78953125 -12.83984375 1.76953125 C-12.17984375 1.76953125 -11.51984375 1.76953125 -10.83984375 1.76953125 C-10.83984375 0.77953125 -10.83984375 -0.21046875 -10.83984375 -1.23046875 C-6.6975342 -2.6112386 -3.69448569 -2.47083438 0 0 Z " fill="#9EC778" transform="translate(23.83984375,3.23046875)"/>
<path d="M0 0 C5.37976962 0.35277178 5.37976962 0.35277178 8 1 C9.6875 3 9.6875 3 11 5 C13.59855733 5.8042208 13.59855733 5.8042208 16 6 C16 6.66 16 7.32 16 8 C16.99 8 17.98 8 19 8 C18.38909774 14.47556391 18.38909774 14.47556391 16.5625 16.9375 C15 18 15 18 13 18 C12.67 16.68 12.34 15.36 12 14 C11.01 14.495 11.01 14.495 10 15 C10.50603992 12.83125748 10.99983813 11.00032373 12 9 C11.01 8.67 10.02 8.34 9 8 C8.34 7.01 7.68 6.02 7 5 C5.989375 4.67 4.97875 4.34 3.9375 4 C2.968125 3.67 1.99875 3.34 1 3 C0.67 2.01 0.34 1.02 0 0 Z " fill="#6DBFE3" transform="translate(12,7)"/>
<path d="M0 0 C3.25 0.125 3.25 0.125 7 1 C9.4375 4.0625 9.4375 4.0625 11 7 C9.68 9.64 8.36 12.28 7 15 C6.34 14.67 5.68 14.34 5 14 C4.40644386 11.35139573 4.25790731 8.70802678 4 6 C2.35 6 0.7 6 -1 6 C-0.67 4.02 -0.34 2.04 0 0 Z " fill="#A1D36A" transform="translate(11,11)"/>
<path d="M0 0 C0.66 0 1.32 0 2 0 C2.68838678 11.81730639 2.68838678 11.81730639 0.1875 15.6875 C-2 18 -2 18 -5 19 C-3.82860087 16.65720173 -2.64757435 14.32334276 -1.4375 12 C-0.28572224 9.59628989 0.50121687 7.59367225 1 5 C0.01 5 -0.98 5 -2 5 C-2 4.34 -2 3.68 -2 3 C-2.99 3 -3.98 3 -5 3 C-5 2.34 -5 1.68 -5 1 C-3.68 1.33 -2.36 1.66 -1 2 C-0.67 1.34 -0.34 0.68 0 0 Z " fill="#0A1013" transform="translate(30,10)"/>
<path d="M0 0 C9.27113703 -0.3090379 9.27113703 -0.3090379 12 2 C13.25 5.125 13.25 5.125 14 8 C11 7 11 7 9 4 C6.80545319 3.42006301 6.80545319 3.42006301 4.375 3.3125 C3.55773437 3.24675781 2.74046875 3.18101563 1.8984375 3.11328125 C1.27195312 3.07589844 0.64546875 3.03851563 0 3 C0 2.01 0 1.02 0 0 Z " fill="#ECF2E7" transform="translate(11,5)"/>
<path d="M0 0 C7.10993658 0.2410148 7.10993658 0.2410148 9.64453125 2.40234375 C11 4.0625 11 4.0625 13 7 C8.6570138 6.34197179 4.92722404 4.96361202 1 3 C0.67 2.01 0.34 1.02 0 0 Z " fill="#568092" transform="translate(12,7)"/>
<path d="M0 0 C0.33 1.32 0.66 2.64 1 4 C2.65 4 4.3 4 6 4 C7.60725635 7.21451269 7.05748185 10.43612536 7 14 C6.34 13.67 5.68 13.34 5 13 C4.40644386 10.35139573 4.25790731 7.70802678 4 5 C2.35 5 0.7 5 -1 5 C-0.67 3.35 -0.34 1.7 0 0 Z " fill="#ECF3E5" transform="translate(11,12)"/>
<path d="M0 0 C2.475 0.99 2.475 0.99 5 2 C5 3.32 5 4.64 5 6 C3.68 5.67 2.36 5.34 1 5 C0.67 3.35 0.34 1.7 0 0 Z " fill="#9BCF63" transform="translate(3,18)"/>
</svg>
