<?xml version="1.0" standalone="no"?>
<!DOCTYPE svg PUBLIC "-//W3C//DTD SVG 20010904//EN"
 "http://www.w3.org/TR/2001/REC-SVG-20010904/DTD/svg10.dtd">
<svg version="1.0" xmlns="http://www.w3.org/2000/svg"
 width="36.000000pt" height="36.000000pt" viewBox="0 0 36.000000 36.000000"
 preserveAspectRatio="xMidYMid meet">

<g transform="translate(0.000000,36.000000) scale(0.100000,-0.100000)"
fill="#000000" stroke="none">
<path d="M105 341 c-48 -22 -69 -44 -90 -94 -21 -51 -19 -95 8 -147 24 -50 72
-86 123 -96 40 -7 104 3 104 17 0 5 -11 6 -27 2 -39 -10 -76 -8 -112 7 -35 14
-38 26 -16 50 18 20 5 70 -19 70 -7 0 -19 6 -26 14 -6 8 -19 13 -28 10 -9 -2
-7 1 5 7 13 7 23 16 23 21 0 6 9 23 21 39 14 20 19 38 15 53 -5 19 -1 26 22
34 52 19 62 21 62 12 0 -5 -11 -12 -25 -16 -31 -8 -49 -38 -37 -61 6 -11 4
-25 -7 -44 -19 -34 -8 -60 29 -69 18 -4 26 -16 34 -50 6 -24 16 -45 22 -47 17
-5 43 24 50 55 4 15 13 34 21 43 12 14 9 21 -19 51 -19 21 -48 39 -68 43 -19
5 -29 10 -22 12 21 8 13 25 -8 18 -14 -4 -20 -2 -20 9 0 9 11 18 25 22 13 3
29 12 36 20 6 8 18 14 26 14 32 0 86 -35 110 -72 29 -42 26 -56 -6 -36 -18 11
-22 10 -35 -7 -14 -19 -15 -19 -26 7 -13 27 -40 46 -40 28 0 -6 4 -10 8 -10 4
0 13 -14 19 -31 12 -30 12 -30 42 -15 28 15 30 15 36 -4 4 -11 11 -17 17 -14
22 14 0 -77 -28 -113 -15 -20 -21 -34 -13 -31 8 2 24 19 36 37 61 91 31 209
-67 259 -53 27 -101 28 -155 3z m-41 -79 c-44 -68 -44 -69 -44 -47 0 28 38 87
51 80 6 -5 4 -16 -7 -33z m91 -32 c3 -5 17 -10 31 -10 16 0 28 -8 36 -25 6
-14 15 -25 20 -25 4 0 4 -8 0 -17 -43 -88 -54 -95 -63 -42 -7 47 -16 59 -45
59 -26 0 -31 18 -14 51 12 21 25 25 35 9z m-92 -89 c31 -16 32 -19 13 -56
l-15 -28 -20 34 c-20 33 -29 74 -13 67 4 -2 19 -10 35 -17z"/>
<path d="M263 125 c-17 -18 -17 -68 -1 -63 16 6 33 58 22 68 -5 5 -15 2 -21
-5z"/>
</g>
</svg>
